<svg width="15" height="13" viewBox="0 0 15 13" fill="none" xmlns="http://www.w3.org/2000/svg">
    <path fill-rule="evenodd" clip-rule="evenodd" d="M14 1.587L1.852 12H13.5C13.6326 12 13.7598 11.9473 13.8536 11.8536C13.9473 11.7598 14 11.6326 14 11.5V1.587ZM0.763 12.807L0.825 12.88L0.855 12.854C1.05 12.948 1.269 13 1.5 13H13.5C13.8978 13 14.2794 12.842 14.5607 12.5607C14.842 12.2794 15 11.8978 15 11.5V1.5C15.0001 1.23407 14.9295 0.972887 14.7954 0.743222C14.6613 0.513558 14.4686 0.323666 14.237 0.193003L14.175 0.120003L14.145 0.145003C13.9435 0.0491102 13.7231 -0.000435998 13.5 2.89052e-06H1.5C1.10218 2.89052e-06 0.720644 0.158038 0.43934 0.439343C0.158035 0.720647 0 1.10218 0 1.5L0 11.5C0 12.06 0.307 12.55 0.763 12.807ZM1 11.413L13.148 1H1.5C1.36739 1 1.24021 1.05268 1.14645 1.14645C1.05268 1.24022 1 1.36739 1 1.5V11.413Z" fill="black"/>
</svg>
