<svg width="422" height="532" viewBox="0 0 422 532" fill="none" xmlns="http://www.w3.org/2000/svg">
<path d="M257.8 138.8C264.2 140.8 267.2 145 266.8 151.4C255.6 258.6 239.2 370.4 217.6 486.8C216 494.4 210.4 500.8 200.8 506C191.2 511.2 181.6 513.8 172 513.8C166 513.8 161.2 512.6 157.6 510.2C154 507.4 152.8 503.6 154 498.8C163.6 457.2 171.6 414.6 178 371C184.4 327.4 190.6 277.4 196.6 221C163.8 251.4 131 284.6 98.2 320.6L65.2 503C63.6 510.6 57.8 517.2 47.8 522.8C37.8 528.4 27.8 531.2 17.8 531.2C11.8 531.2 7.2 530 4 527.6C0.8 524.8 -0.4 520.8 0.4 515.6L29.8 350.6C25 349.4 22.6 346.6 22.6 342.2C22.6 339 24.4 335 28 330.2L35.2 320.6L89.2 27.2C90.4 20 96 13.8 106 8.59999C116 3.39998 125.8 0.799983 135.4 0.799983C141 0.799983 145.4 1.99998 148.6 4.39997C151.8 6.79996 153 10.2 152.2 14.6L113.8 231.8C143.4 202.2 176.4 174 212.8 147.2C224.4 139.2 235.2 135.2 245.2 135.2C250 135.2 254.2 136.4 257.8 138.8ZM413.27 41C408.87 39.8 404.47 39.2 400.07 39.2C391.27 39.2 383.47 41.4 376.67 45.8C367.87 50.6 362.87 55.4 361.67 60.2C356.47 79 353.07 91.4 351.47 97.4V99.2C351.47 101.2 352.27 103.2 353.87 105.2C355.47 106.8 357.27 108 359.27 108.8C362.47 110.4 366.07 111.2 370.07 111.2C376.47 111.2 384.07 109.4 392.87 105.8C402.07 101.8 408.07 96.4 410.87 89.6C413.27 82.8 416.67 70.8 421.07 53.6V52.4C421.07 50.4 420.27 48.4 418.67 46.4C417.07 44 415.27 42.2 413.27 41ZM389.87 281.6C387.47 297.6 382.87 326.6 376.07 368.6C369.67 410.2 364.27 448 359.87 482C358.67 489.6 353.27 496.2 343.67 501.8C334.47 507 325.07 509.6 315.47 509.6C309.07 509.6 304.07 508.4 300.47 506C297.27 503.2 296.07 499.2 296.87 494C303.67 454 310.87 408.4 318.47 357.2C326.47 305.6 332.07 268.8 335.27 246.8L347.87 164.6C349.07 157.4 354.47 151.2 364.07 146C374.07 140.8 383.67 138.2 392.87 138.2C398.47 138.2 402.87 139.4 406.07 141.8C409.27 144.2 410.47 147.6 409.67 152L389.87 281.6Z" fill="#EFEFEF"/>
</svg>
