<svg width="99" height="71" viewBox="0 0 99 71" fill="none" xmlns="http://www.w3.org/2000/svg">
    <path d="M91.125 0.8125H7.875C6.03506 0.8125 4.27048 1.54341 2.96945 2.84445C1.66841 4.14548 0.9375 5.91006 0.9375 7.75V63.25C0.9375 65.0899 1.66841 66.8545 2.96945 68.1556C4.27048 69.4566 6.03506 70.1875 7.875 70.1875H91.125C92.9649 70.1875 94.7295 69.4566 96.0306 68.1556C97.3316 66.8545 98.0625 65.0899 98.0625 63.25V7.75C98.0625 5.91006 97.3316 4.14548 96.0306 2.84445C94.7295 1.54341 92.9649 0.8125 91.125 0.8125ZM83.4937 7.75L49.5 31.2681L15.5062 7.75H83.4937ZM7.875 63.25V10.9066L47.5228 38.3444C48.1035 38.7472 48.7933 38.963 49.5 38.963C50.2067 38.963 50.8965 38.7472 51.4772 38.3444L91.125 10.9066V63.25H7.875Z" fill="black"/>
</svg>
