<svg width="98" height="96" viewBox="0 0 98 96" fill="none" xmlns="http://www.w3.org/2000/svg">
    <path d="M48.9562 0.345341C21.9078 0.334404 0 22.2313 0 49.2578C0 70.6297 13.7047 88.7969 32.7906 95.4688C35.3609 96.1141 34.9672 94.2875 34.9672 93.0406V84.5641C20.125 86.3031 19.5234 76.4813 18.5281 74.8406C16.5156 71.4063 11.7578 70.5313 13.1797 68.8906C16.5594 67.1516 20.0047 69.3281 23.9969 75.2235C26.8844 79.5 32.5172 78.7781 35.3719 78.0672C35.9953 75.4969 37.3297 73.2 39.1672 71.4172C23.7891 68.661 17.3797 59.2766 17.3797 48.1203C17.3797 42.7063 19.1625 37.7297 22.6625 33.7157C20.4313 27.0985 22.8703 21.4328 23.1984 20.5907C29.5531 20.0219 36.1594 25.1407 36.6734 25.5453C40.2828 24.5719 44.4062 24.0578 49.0219 24.0578C53.6594 24.0578 57.7938 24.5938 61.4359 25.5781C62.6719 24.6375 68.7969 20.2407 74.7031 20.7766C75.0203 21.6188 77.4047 27.1532 75.3047 33.6828C78.8484 37.7078 80.6531 42.7282 80.6531 48.1532C80.6531 59.3313 74.2 68.7266 58.7781 71.4391C60.0991 72.7381 61.1479 74.2873 61.8634 75.9963C62.5789 77.7052 62.9467 79.5396 62.9453 81.3922V93.6969C63.0328 94.6813 62.9453 95.6547 64.5859 95.6547C83.9563 89.125 97.9016 70.8266 97.9016 49.2688C97.9016 22.2313 75.9828 0.345341 48.9562 0.345341Z" fill="black"/>
</svg>
