<svg width="130" height="78" viewBox="0 0 130 78" fill="none" xmlns="http://www.w3.org/2000/svg">
    <path d="M105.463 12.9797L95.7938 3.31094C93.6539 1.18995 90.7629 -2.3534e-05 87.75 3.49077e-10H41.6812C38.675 3.49077e-10 35.7703 1.19844 33.6375 3.31094L23.9688 12.9797H0V64.9188H13C16.575 64.9188 19.4594 62.0344 19.4797 58.4797H21.3281L38.5125 73.9984C44.7891 79.0969 53.5031 79.2188 59.9625 74.7703C62.5016 76.9641 65.2437 78 68.3109 78C72.0078 78 75.4813 76.4969 78.2234 73.125C82.7125 74.8922 88.0141 73.6531 91.2234 69.7125L96.5453 63.1516C97.6828 61.75 98.3938 60.1453 98.7594 58.4797H110.52C110.541 62.0344 113.445 64.9188 117 64.9188H130V12.9797H105.463ZM9.75 58.4188C7.9625 58.4188 6.5 56.9563 6.5 55.1688C6.5 53.3813 7.9625 51.9188 9.75 51.9188C11.5375 51.9188 13 53.3813 13 55.1688C13 56.9766 11.5375 58.4188 9.75 58.4188ZM88.9688 57.0172L83.6672 63.5578C83.0984 64.2484 82.0828 64.3703 81.3719 63.8016L76.5172 59.8609L70.4234 67.275C69.2047 68.7578 67.3766 68.25 66.7672 67.7625L59.2922 61.3641L56.1234 65.2641C53.3 68.7375 48.1609 69.2656 44.8906 66.6047L25.1266 48.7297H19.5V22.7094H28.0109L40.5438 10.1969C40.95 10.0344 41.2953 9.89219 41.7016 9.72969H53.2188L45.3578 16.9406C39.3859 22.4047 39.0406 31.6266 44.4641 37.5172C47.4703 40.8078 56.8953 45.8859 65.0812 38.4109L66.7469 36.8875L88.725 54.7219C89.4156 55.2906 89.5172 56.3266 88.9688 57.0172ZM110.5 48.7297H96.4437C95.9766 48.1609 95.4484 47.6328 94.8797 47.1656L74.0187 30.225L76.5578 27.9094C77.8781 26.6906 77.9797 24.6391 76.7609 23.3188L74.5469 20.9422C73.3281 19.6219 71.2766 19.5406 69.9562 20.7391L58.7438 31.0172C56.8141 32.7844 53.5234 32.9266 51.7156 31.0172C49.8266 29.0063 49.9891 25.9188 51.9594 24.1313L65.2844 11.9234C66.7875 10.5422 68.7375 9.79062 70.7687 9.79062L87.7703 9.75C88.1969 9.75 88.6031 9.9125 88.8875 10.2172L101.42 22.7297H110.5V48.7297ZM120.25 58.4188C118.463 58.4188 117 56.9563 117 55.1688C117 53.3813 118.463 51.9188 120.25 51.9188C122.037 51.9188 123.5 53.3813 123.5 55.1688C123.5 56.9766 122.037 58.4188 120.25 58.4188Z" fill="black"/>
</svg>
