<svg width="111" height="111" viewBox="0 0 111 111" fill="none" xmlns="http://www.w3.org/2000/svg">
    <path d="M89.1469 32.2594L64.8656 7.97812C64.1719 7.28437 63.4781 6.9375 62.4375 6.9375H27.75C23.9344 6.9375 20.8125 10.0594 20.8125 13.875V97.125C20.8125 100.941 23.9344 104.062 27.75 104.062H83.25C87.0656 104.062 90.1875 100.941 90.1875 97.125V34.6875C90.1875 33.6469 89.8406 32.9531 89.1469 32.2594ZM62.4375 15.2625L81.8625 34.6875H62.4375V15.2625ZM83.25 97.125H27.75V13.875H55.5V34.6875C55.5 38.5031 58.6219 41.625 62.4375 41.625H83.25V97.125Z" fill="black"/>
    <path d="M34.6875 76.3125H76.3125V83.25H34.6875V76.3125Z" fill="black"/>
    <path d="M34.6875 55.5H76.3125V62.4375H34.6875V55.5Z" fill="black"/>
</svg>
